# xmcd
# 
# Track frame offsets:
#     150
#     17885
#     38767
#     55522
#     73865
#     93707
#     111960
#     132590
#     150395
#     166477
#     184640
#     200285
#     214900
# 
# Disc length: 3034
# 
# Revision: 21
# Processed by: cddbd v1.5.2PL0 Copyright (c) Steve Scherf et al.
# Submitted via: fre:ac v1.0.17
# 
DISCID=b60bd80d
DTITLE=Simply Red - Blue
DYEAR=1998
DGENRE=Pop
TTITLE0=Mellow My Mind
TTITLE1=Blue
TTITLE2=Say You Love Me
TTITLE3=To Be Free
TTITLE4=The Air That I Breathe
TTITLE5=Someday In My Life
TTITLE6=The Air That I Breathe (Reprise)
TTITLE7=Night Nurse
TTITLE8=Broken Man
TTITLE9=Come Get Me Angel
TTITLE10=Ghetto Girl
TTITLE11=Love Has Said Goodbye Again
TTITLE12=High Fives
EXTD=
EXTT0=
EXTT1=
EXTT2=
EXTT3=
EXTT4=
EXTT5=
EXTT6=
EXTT7=
EXTT8=
EXTT9=
EXTT10=
EXTT11=
EXTT12=\n\nGoes by
PLAYORDER=
